<?xml version="1.0" standalone="no"?> 
<!DOCTYPE svg PUBLIC "-//W3C//DTD SVG 1.1//EN" "http://www.w3.org/Graphics/SVG/1.1/DTD/svg11.dtd" >
<svg xmlns="http://www.w3.org/2000/svg">
<defs>
  <font id="icons" horiz-adv-x="2048">
    <font-face font-family="icons"
      units-per-em="512" ascent="448"
      descent="64" />
    <missing-glyph horiz-adv-x="0" />
    <glyph glyph-name="arrow--down"
      unicode="&#xF101;"
      horiz-adv-x="395.6363636363637" d=" M391.95151515151514 252.05656565656562L371.9757575757576 272.03232323232317C369.51919191919194 274.4888888888888 366.1575757575758 275.91111111111104 362.7313131313132 275.91111111111104S356.39595959595965 274.4242424242424 353.4868686868688 272.03232323232317L197.75353535353537 116.29898989898987L42.02020202020202 272.0323232323232C39.56363636363637 274.4888888888889 36.20202020202021 275.9111111111111 32.77575757575758 275.9111111111111S26.440404040404047 274.4242424242424 23.531313131313137 272.0323232323232L3.6202020202020204 252.05656565656562C1.1636363636363636 249.59999999999997 -0.25858585858585886 246.2383838383838 -0.25858585858585886 242.81212121212118S1.228282828282828 236.47676767676762 3.6202020202020204 233.56767676767672L188.57373737373743 48.61414141414133C191.0303030303031 46.15757575757573 194.39191919191924 44.735353535353454 197.81818181818187 44.735353535353454S204.1535353535354 46.222222222222115 207.06262626262634 48.61414141414133L392.0161616161617 233.56767676767672C394.47272727272735 236.02424242424237 395.89494949494957 239.38585858585853 395.89494949494957 242.81212121212118C396.3474747474748 246.6909090909091 394.8606060606061 249.66464646464644 391.95151515151514 252.05656565656562z" />
    <glyph glyph-name="arrow--left-medium"
      unicode="&#xF102;"
      horiz-adv-x="1830.4" d=" M12.8 201.6H1830.3999999999999V185.60000000000002H12.799999999999955z M118.4 83.19999999999999L0 192L118.4 300.8L128 288L22.4 192L128 96z" />
    <glyph glyph-name="arrow--left"
      unicode="&#xF103;"
      horiz-adv-x="298.5092250922509" d=" M91.94587945879464 191.68511685116852L293.47109471094717 393.21033210332104C296.61992619926207 396.3591635916359 298.50922509225103 400.76752767527677 298.50922509225103 405.17589175891754S296.61992619926207 413.36285362853624 293.47109471094717 417.1414514145141L267.65067650676514 442.96186961869614C264.5018450184503 446.11070110701104 260.0934809348094 447.99999999999994 255.68511685116857 447.99999999999994C251.2767527675277 447.99999999999994 247.49815498154987 446.11070110701104 243.71955719557198 442.96186961869614L4.408364083640854 203.65067650676508C1.259532595325971 200.5018450184502 -0.6297662976629408 196.09348093480935 -0.6297662976629408 191.68511685116852S1.259532595325971 183.49815498154982 4.408364083640854 179.7195571955719L243.71955719557198 -59.59163591635922C246.86838868388685 -62.74046740467412 251.2767527675277 -64.62976629766297 255.68511685116857 -64.62976629766297C260.0934809348094 -64.62976629766297 263.8720787207872 -62.74046740467412 267.65067650676514 -59.59163591635922L293.47109471094717 -33.77121771217719C296.61992619926207 -30.62238622386235 298.50922509225103 -26.21402214022146 298.50922509225103 -21.805658056580626C298.50922509225103 -17.397293972939735 296.61992619926207 -13.618696186961927 293.47109471094717 -9.840098400984004L91.94587945879464 191.68511685116852z" />
    <glyph glyph-name="arrow--right-medium"
      unicode="&#xF104;"
      horiz-adv-x="1830.4" d=" M0 201.6H1817.6V185.60000000000002H0z M1712 300.8L1830.4 192L1712 83.19999999999999L1702.4 96L1804.8 192L1702.4 288z" />
    <glyph glyph-name="arrow--right"
      unicode="&#xF105;"
      horiz-adv-x="298.5092250922509" d=" M293.47109471094717 203.65067650676508L54.159901599016045 442.9618696186962C51.01107011070116 446.1107011070111 46.60270602706031 448 42.19434194341945 448S34.007380073800775 446.1107011070111 30.22878228782286 442.9618696186962L4.408364083640854 417.14145141451417C1.259532595325971 413.99261992619927 -0.6297662976629408 409.58425584255843 -0.6297662976629408 405.1758917589176S1.259532595325971 396.9889298892989 4.408364083640854 393.21033210332104L205.93357933579338 191.68511685116852L4.408364083640854 -9.840098400984004C1.259532595325971 -12.988929889298902 -0.6297662976629408 -17.397293972939735 -0.6297662976629408 -21.805658056580626C-0.6297662976629408 -26.21402214022146 1.259532595325971 -29.992619926199268 4.408364083640854 -33.77121771217719L30.22878228782286 -59.59163591635922C33.37761377613774 -62.74046740467412 37.7859778597786 -64.62976629766297 42.19434194341945 -64.62976629766297S50.38130381303813 -62.74046740467412 54.159901599016045 -59.59163591635922L293.47109471094717 179.7195571955719C296.61992619926207 182.8683886838868 298.50922509225103 187.27675276752763 298.50922509225103 191.68511685116852S296.61992619926207 199.8720787207872 293.47109471094717 203.65067650676508z" />
    <glyph glyph-name="arrow--up-medium"
      unicode="&#xF106;"
      horiz-adv-x="395.6363636363637" d=" M196.46060606060607 387.0383838383838H199.8868686868687V-5.81818181818187H196.46060606060607z M174.28686868686873 364.21818181818185L197.81818181818184 389.8181818181818L221.34949494949495 364.21818181818185L218.569696969697 362.14949494949497L197.81818181818184 384.96969696969694L177.06666666666666 362.14949494949497z" />
    <glyph glyph-name="arrow--up"
      unicode="&#xF107;"
      horiz-adv-x="395.6363636363637" d=" M392.01616161616164 87.07878787878786L207.06262626262628 272.0323232323232C204.60606060606062 274.4888888888889 201.24444444444447 275.9111111111111 197.81818181818184 275.9111111111111S191.48282828282828 274.4242424242424 188.57373737373737 272.0323232323232L3.6202020202020204 87.07878787878786C1.1636363636363636 84.62222222222226 -0.25858585858585886 81.26060606060605 -0.25858585858585886 77.83434343434345C-0.25858585858585886 74.40808080808085 1.228282828282828 71.49898989898998 3.6202020202020204 68.58989898989904L23.5959595959596 48.6141414141415C26.052525252525253 46.15757575757584 29.414141414141415 44.735353535353624 32.84040404040404 44.735353535353624S39.17575757575757 46.222222222222285 42.084848484848486 48.6141414141415L197.81818181818184 204.34747474747473L353.55151515151516 48.614141414141386C356.0080808080808 46.157575757575785 359.369696969697 44.73535353535351 362.7959595959596 44.73535353535351S369.1313131313131 46.22222222222217 372.040404040404 48.614141414141386L392.0161616161616 68.58989898989898C394.4727272727272 71.04646464646459 395.89494949494946 74.4080808080808 395.89494949494946 77.8343434343434C395.8949494949495 81.26060606060605 394.9252525252525 84.62222222222215 392.01616161616164 87.07878787878786z" />
    <glyph glyph-name="bars"
      unicode="&#xF108;"
      horiz-adv-x="512" d=" M64 48V80Q64 86.5 68.75 91.25T80 96H432Q438.5 96 443.25 91.25T448 80V48Q448 41.5 443.25 36.75T432 32H80Q73.5 32 68.75 36.75T64 48zM64 176V208Q64 214.5 68.75 219.25T80 224H432Q438.5 224 443.25 219.25T448 208V176Q448 169.5 443.25 164.75T432 160H80Q73.5 160 68.75 164.75T64 176zM64 304V336Q64 342.5 68.75 347.25T80 352H432Q438.5 352 443.25 347.25T448 336V304Q448 297.5 443.25 292.75T432 288H80Q73.5 288 68.75 292.75T64 304z" />
    <glyph glyph-name="caret-down"
      unicode="&#xF109;"
      horiz-adv-x="512" d=" M128 240Q128 246.5 132.75 251.25T144 256H368Q374.5 256 379.25 251.25T384 240T379.25 228.75L267.25 116.75Q262.5 112 256 112T244.75 116.75L132.75 228.75Q128 233.5 128 240z" />
    <glyph glyph-name="caret-right"
      unicode="&#xF10A;"
      horiz-adv-x="512" d=" M176 80V304Q176 310.5 180.75 315.25T192 320T203.25 315.25L315.25 203.25Q320 198.5 320 192T315.25 180.75L203.25 68.75Q198.5 64 192 64T180.75 68.75T176 80z" />
    <glyph glyph-name="caret-up"
      unicode="&#xF10B;"
      horiz-adv-x="512" d=" M128 112Q128 118.5 132.75 123.25L244.75 235.25Q249.5 240 256 240T267.25 235.25L379.25 123.25Q384 118.5 384 112T379.25 100.75T368 96H144Q137.5 96 132.75 100.75T128 112z" />
    <glyph glyph-name="check"
      unicode="&#xF10C;"
      horiz-adv-x="512" d=" M62.25 184Q62.25 194 69.25 201L103.25 235Q110.25 242 120.25 242T137.25 235L210.75 161.25L374.75 325.5Q381.75 332.5 391.75 332.5T408.75 325.5L442.75 291.5Q449.75 284.5 449.75 274.5T442.75 257.5L261.75 76.5L227.75 42.5Q220.75 35.5 210.75 35.5T193.75 42.5L159.75 76.5L69.25 167Q62.25 174 62.25 184z" />
    <glyph glyph-name="envelope"
      unicode="&#xF10D;"
      horiz-adv-x="682.6666666666666" d=" M0 448V-64H682.6666666666666V448H0zM608.463768115942 403.47826086956525L341.3333333333333 177.15942028985506L74.20289855072464 403.47826086956525C74.20289855072464 403.47826086956525 608.463768115942 403.47826086956525 608.463768115942 403.47826086956525zM44.52173913043478 -23.18840579710144V377.5072463768116L345.04347826086956 121.50724637681157L645.5652173913044 377.50724637681157V-23.188405797101495C641.8550724637681 -23.18840579710144 44.52173913043478 -23.18840579710144 44.52173913043478 -23.18840579710144z" />
    <glyph glyph-name="facebook"
      unicode="&#xF10E;"
      horiz-adv-x="512" d=" M151.75 189.75V263.75H215.5V318.25Q215.5 364.75 241.5 390.375T310.75 416Q347.5 416 367.75 413V347H328.5Q307 347 299.5 338T292 311V263.75H365.25L355.5 189.75H292V0H215.5V189.75H151.75z" />
    <glyph glyph-name="heart-o"
      unicode="&#xF10F;"
      horiz-adv-x="512" d=" M32 267Q32 322 63.75 353T151.5 384Q167 384 183.125 378.625T213.125 364.125T237 347T256 330Q265 339 275 347T298.875 364.125T328.875 378.625T360.5 384Q416.5 384 448.25 353T480 267Q480 211.75 422.75 154.5L267 4.5Q262.5 0 256 0T245 4.5L89 155Q86.5 157 82.125 161.5T68.25 177.875T51.25 202.25T37.875 232.5T32 267zM64 267Q64 225 110.75 178.25L256 38.25L401 178Q448 225 448 267Q448 287.25 442.625 302.75T428.875 327.375T408.5 342.25T385 350T360.5 352T332.5 345.625T304.875 329.625T283.25 311.625T268.25 296.25Q263.75 290.75 256 290.75T243.75 296.25Q237.75 303.25 228.75 311.625T207.125 329.625T179.5 345.625T151.5 352T127 350T103.5 342.25T83.125 327.375T69.375 302.75T64 267z" />
    <glyph glyph-name="heart"
      unicode="&#xF110;"
      horiz-adv-x="512" d=" M32 267Q32 322 63.75 353T151.5 384Q167 384 183.125 378.625T213.125 364.125T237 347T256 330Q265 339 275 347T298.875 364.125T328.875 378.625T360.5 384Q416.5 384 448.25 353T480 267Q480 211.75 422.75 154.5L267 4.5Q262.5 0 256 0T245 4.5L89 155Q86.5 157 82.125 161.5T68.25 177.875T51.25 202.25T37.875 232.5T32 267z" />
    <glyph glyph-name="instagram"
      unicode="&#xF111;"
      horiz-adv-x="512" d=" M64 49.25V334.75Q64 355 78.5 369.5T113.25 384H398.75Q419 384 433.5 369.5T448 334.75V49.25Q448 29 433.5 14.5T398.75 0H113.25Q93 0 78.5 14.5T64 49.25zM106.75 59.5Q106.75 53 111.125 48.625T122 44.25H389.25Q395.5 44.25 400 48.625T404.5 59.5V221.5H370.75Q375.75 205.75 375.75 188.75Q375.75 157.25 359.75 130.625T316.25 88.5T256.25 73Q207 73 172 106.875T137 188.75Q137 205.75 142 221.5H106.75V59.5zM179.25 192.75Q179.25 161.75 201.875 139.875T256.25 118Q288.25 118 310.875 139.875T333.5 192.75T310.875 245.625T256.25 267.5Q224.5 267.5 201.875 245.625T179.25 192.75zM326.5 282.75Q326.5 275.5 331.5 270.5T343.75 265.5H387.25Q394.5 265.5 399.5 270.5T404.5 282.75V324Q404.5 331 399.5 336.125T387.25 341.25H343.75Q336.5 341.25 331.5 336.125T326.5 324V282.75z" />
    <glyph glyph-name="pinterest"
      unicode="&#xF112;"
      horiz-adv-x="512" d=" M64 192Q64 244.25 89.75 288.375T159.625 358.25T256 384T352.375 358.25T422.25 288.375T448 192T422.25 95.625T352.375 25.75T256 0Q228.25 0 201.5 8Q216.25 31.25 221 49Q223.25 57.5 234.5 101.75Q239.5 92 252.75 84.875T281.25 77.75Q311.5 77.75 335.25 94.875T372 142T385 209.5Q385 238 370.125 263T327 303.75T263.25 319.5Q237 319.5 214.25 312.25T175.625 293T148.375 265.375T131.625 233T126.25 199.5Q126.25 173.5 136.25 153.75T165.5 126Q173 123 175 131Q175.5 132.75 177 138.75T179 146.25Q180.5 152 176.25 157Q163.5 172.25 163.5 194.75Q163.5 232.5 189.625 259.625T258 286.75Q295.75 286.75 316.875 266.25T338 213Q338 170.5 320.875 140.75T277 111Q261.75 111 252.5 121.875T246.75 148Q248.75 156.75 253.375 171.375T260.875 197.125T263.75 216Q263.75 228.5 257 236.75T237.75 245Q222.25 245 211.5 230.75T200.75 195.25Q200.75 177 207 164.75L182.25 60.25Q178 42.75 179 16Q127.5 38.75 95.75 86.25T64 192z" />
    <glyph glyph-name="play-circle"
      unicode="&#xF113;"
      horiz-adv-x="512" d=" M64 192Q64 244.25 89.75 288.375T159.625 358.25T256 384T352.375 358.25T422.25 288.375T448 192T422.25 95.625T352.375 25.75T256 0T159.625 25.75T89.75 95.625T64 192zM192 112Q192 102.75 200 98Q204 96 208 96Q212.25 96 216 98.25L352 178.25Q360 182.75 360 192T352 205.75L216 285.75Q208.25 290.5 200 286Q192 281.25 192 272V112z" />
    <glyph glyph-name="play"
      unicode="&#xF114;"
      horiz-adv-x="486.9059288537549" d=" M479.21581027667986 201.91620553359687L41.28379446640317 445.5715415019763C36.42687747035573 448.40474308300395 31.974703557312246 448.40474308300395 28.33201581027668 446.3810276679842S23.070355731225305 440.3098814229249 23.070355731225305 434.6434782608696V-51.04822134387348C23.070355731225305 -56.71462450592884 24.68932806324111 -60.76205533596834 28.33201581027668 -62.78577075098809S36.42687747035573 -64.8094861660079 41.28379446640317 -61.97628458498025L479.21581027667986 181.2743083003952C484.0727272727272 184.10750988142286 486.905928853755 187.7501976284584 486.905928853755 191.39288537549402C486.905928853755 195.84505928853758 484.47747035573116 199.0830039525692 479.21581027667986 201.91620553359687z" />
    <glyph glyph-name="remove"
      unicode="&#xF115;"
      horiz-adv-x="515.6646216768917" d=" M372.7443762781186 191.4764826175869L498.3885480572597 317.120654396728C506.24130879345597 324.97341513292434 510.42944785276075 334.920245398773 510.42944785276075 345.9141104294479S506.24130879345597 366.85480572597135 498.3885480572597 374.7075664621677L439.7546012269939 432.81799591002044C431.90184049079755 440.6707566462168 421.95501022494886 444.8588957055215 410.961145194274 444.8588957055215C399.4437627811862 444.8588957055215 390.02044989775055 440.6707566462168 382.1676891615542 432.81799591002044L256.5235173824131 307.1738241308793L130.879345603272 432.81799591002044C123.02658486707567 440.6707566462168 113.07975460122697 444.8588957055215 102.08588957055215 444.8588957055215C90.5685071574642 444.8588957055215 81.14519427402864 440.6707566462168 73.29243353783231 432.81799591002044L15.182004089979543 374.7075664621677C7.329243353783224 366.85480572597135 3.1411042944785352 356.9079754601227 3.1411042944785352 345.9141104294479S7.329243353783224 324.97341513292434 15.182004089979543 317.120654396728L140.8261758691207 191.4764826175869L15.18200408997958 65.83231083844578C7.329243353783261 57.97955010224945 3.1411042944785725 48.03271983640076 3.1411042944785725 37.038854805725975S7.329243353783261 16.098159509202446 15.18200408997958 8.245398773006116L73.29243353783231 -49.865030674846594C81.14519427402864 -57.717791411042924 91.09202453987733 -61.90593047034764 102.08588957055215 -61.90593047034764C113.6032719836401 -61.90593047034764 123.02658486707567 -57.717791411042924 130.879345603272 -49.865030674846594L256.5235173824131 75.77914110429447L382.1676891615542 -49.865030674846594C390.02044989775055 -57.717791411042924 399.96728016359924 -61.90593047034764 410.961145194274 -61.90593047034764C422.4785276073619 -61.90593047034764 431.90184049079755 -57.717791411042924 439.7546012269939 -49.865030674846594L497.8650306748466 8.245398773006116C505.7177914110429 16.098159509202446 509.9059304703477 26.044989775051135 509.9059304703477 37.038854805725975S505.7177914110429 57.97955010224945 497.8650306748466 65.83231083844578L372.7443762781186 191.4764826175869z" />
    <glyph glyph-name="search"
      unicode="&#xF116;"
      horiz-adv-x="451.6422764227642" d=" M451.6422764227642 -34.861788617886134L347.5772357723577 104.58536585365857C416.260162601626 175.34959349593498 426.66666666666663 287.739837398374 366.30894308943084 368.910569105691C326.7642276422764 418.8617886178862 266.4065040650407 448 201.8861788617886 448C158.17886178861787 448 116.55284552845528 433.4308943089431 81.17073170731707 406.3739837398374C-8.325203252032521 339.7723577235772 -27.056910569105693 212.8130081300813 41.6260162601626 123.3170731707317C81.17073170731707 71.28455284552842 139.4471544715447 42.146341463414615 203.96747967479675 42.146341463414615C241.43089430894312 42.146341463414615 278.8943089430894 52.55284552845529 310.1138211382114 73.3658536585366L414.17886178861784 -64L451.6422764227642 -34.861788617886134zM79.08943089430893 152.45528455284557C27.056910569105693 221.1382113821138 41.6260162601626 316.8780487804878 110.30894308943088 368.9105691056911C137.36585365853657 389.7235772357724 168.58536585365852 400.130081300813 203.96747967479675 400.130081300813C253.9186991869919 400.130081300813 297.6260162601626 377.2357723577236 326.7642276422764 337.6910569105691C378.79674796747975 269.0081300813008 364.2276422764228 173.26829268292687 295.5447154471545 121.23577235772359C268.4878048780488 100.42276422764229 237.26829268292687 90.01626016260167 201.88617886178864 90.01626016260167C154.01626016260164 90.01626016260167 108.22764227642277 112.91056910569102 79.08943089430893 152.45528455284557z" />
    <glyph glyph-name="shopping-bag"
      unicode="&#xF117;"
      horiz-adv-x="354.9579831932773" d=" M354.9579831932773 -61.84873949579827H0V318.92436974789916H354.9579831932773V-61.84873949579827zM21.512605042016805 -40.33613445378148H333.44537815126046V297.4117647058824H21.512605042016805V-40.33613445378148z M283.9663865546218 349.0420168067227H262.453781512605C262.453781512605 392.06722689075633 228.03361344537814 428.6386554621849 185.0084033613445 428.6386554621849C141.9831932773109 428.6386554621849 105.41176470588233 394.218487394958 105.41176470588233 349.0420168067227H83.89915966386553C83.89915966386553 402.8235294117647 129.07563025210084 448 185.0084033613445 448C238.78991596638653 448 283.9663865546218 402.8235294117647 283.9663865546218 349.0420168067227z" />
    <glyph glyph-name="tumblr"
      unicode="&#xF118;"
      horiz-adv-x="512" d=" M147.5 226.75V281Q170.25 288.5 186.25 302Q202.25 315.75 212 335Q221.75 354.5 225.5 384H280.25V287H371.25V226.75H280.25V128.25Q280.25 94.25 283.75 85.25Q287 76 296.75 70.25Q309.25 62.5 326 62.5Q355.25 62.5 384 81.5V21Q358.5 9 339.5 4.75Q320.25 0 296.25 0Q270 0 249.75 6.75Q230.25 13 215.25 25.5Q200.75 38.25 195.5 51.75Q190 65.25 190 92V226.75H147.5z" />
    <glyph glyph-name="twitter"
      unicode="&#xF119;"
      horiz-adv-x="512" d=" M59 68.25Q67.75 67.25 78.5 67.25Q134.75 67.25 178.75 101.75Q152.5 102.25 131.75 117.875T103.25 157.75Q111.5 156.5 118.5 156.5Q129.25 156.5 139.75 159.25Q111.75 165 93.375 187.125T75 238.5V239.5Q92 230 111.5 229.25Q95 240.25 85.25 258T75.5 296.5Q75.5 318.5 86.5 337.25Q116.75 300 160.125 277.625T253 252.75Q251 262.25 251 271.25Q251 304.75 274.625 328.375T331.75 352Q366.75 352 390.75 326.5Q418 331.75 442 346Q432.75 317.25 406.5 301.5Q429.75 304 453 314Q436.25 289.5 412.5 272.25Q412.75 268.75 412.75 261.75Q412.75 229.25 403.25 196.875T374.375 134.75T328.25 82.125T263.75 45.625T183 32Q115.25 32 59 68.25z" />
    <glyph glyph-name="youtube"
      unicode="&#xF11A;"
      horiz-adv-x="512" d=" M70.75 97Q70.75 155.5 77.25 184.5Q80.75 199.25 91.75 209.25T117.5 221Q163.25 226 256 226T394.75 221Q409.25 219.25 420.375 209.25T434.75 184.5Q441.25 156.5 441.25 97Q441.25 38.5 434.75 9.5Q431.25 -5.25 420.25 -15.25T394.75 -26.75Q348.75 -32 256 -32T117.25 -26.75Q102.75 -25.25 91.625 -15.25T77.25 9.5Q70.75 37.5 70.75 97zM98.5 159.25H124.75V17H149.75V159.25H176.5V182.75H98.5V159.25zM130.5 416H157L174.75 350.25L191.75 416H217.25L187 316.25V248.5H162V316.25Q158.5 334.75 146.75 369.25Q137.5 395 130.5 416zM179.75 42.75Q179.75 30.5 181.75 24.5Q184.75 15.25 196.25 15.25Q208.25 15.25 221.75 30.5V17H244V140.5H221.75V46Q214.25 35.5 207.5 35.5Q203 35.5 202.25 40.75Q202 41.5 202 49.5V140.5H179.75V42.75zM217.5 289V332.75Q217.5 352.75 224.5 362Q234 374.75 250.75 374.75Q268 374.75 277.25 362Q284.25 352.75 284.25 332.75V289Q284.25 268.75 277.25 259.5Q268 246.75 250.75 246.75Q234 246.75 224.5 259.5Q217.5 269 217.5 289zM240 284.75Q240 267.25 250.75 267.25T261.5 284.75V337.25Q261.5 354.5 250.75 354.5T240 337.25V284.75zM263.5 17H285.75V29Q297 15.25 309 15.25Q322.5 15.25 326.75 29Q329 35.75 329 54V103.25Q329 121.5 326.75 128Q322.5 142 309 142Q296.5 142 285.75 128.5V182.75H263.5V17zM285.75 41V116.25Q291.25 121.75 297 121.75Q306.75 121.75 306.75 105V52.25Q306.75 35.5 297 35.5Q291.25 35.5 285.75 41zM302.75 274.75V373.25H325.5V281.5Q325.5 273.25 325.75 272.75Q326.5 267.25 331 267.25Q337.75 267.25 345.25 278V373.25H368V248.5H345.25V262.25Q332 246.75 319.5 246.75Q308 246.75 304.75 256Q302.75 262 302.75 274.75zM346.5 57Q346.5 37.25 353.75 28Q363.5 15.25 380.75 15.25Q398.75 15.25 407.75 28.5Q412.25 35.25 413 42Q413.5 44.25 413.5 56.5V59.75H390.75Q390.75 47 390.25 44.5Q388.5 35.5 380.25 35.5Q368.75 35.5 368.75 52.75V74.5H413.5V100.25Q413.5 120 406.75 129.25Q397 142 380.25 142Q363.25 142 353.5 129.25Q346.5 120 346.5 100.25V57zM368.75 93.25V104.75Q368.75 121.75 380 121.75T391.25 104.75V93.25H368.75z" />
  </font>
</defs>
</svg>
