<?xml version="1.0" encoding="utf-8"?>
<!-- Generator: Adobe Illustrator 18.0.0, SVG Export Plug-In . SVG Version: 6.00 Build 0)  -->
<!DOCTYPE svg PUBLIC "-//W3C//DTD SVG 1.1//EN" "http://www.w3.org/Graphics/SVG/1.1/DTD/svg11.dtd">
<svg version="1.1" id="Capa_1" xmlns="http://www.w3.org/2000/svg" xmlns:xlink="http://www.w3.org/1999/xlink" x="0px" y="0px"
	 viewBox="59 24 98.5 97.8" enable-background="new 59 24 98.5 97.8" xml:space="preserve">
<path d="M130.2,73l24-24c1.5-1.5,2.3-3.4,2.3-5.5s-0.8-4-2.3-5.5L143,26.9c-1.5-1.5-3.4-2.3-5.5-2.3c-2.2,0-4,0.8-5.5,2.3l-24,24
	l-24-24c-1.5-1.5-3.4-2.3-5.5-2.3c-2.2,0-4,0.8-5.5,2.3L61.9,38c-1.5,1.5-2.3,3.4-2.3,5.5s0.8,4,2.3,5.5l24,24l-24,24
	c-1.5,1.5-2.3,3.4-2.3,5.5s0.8,4,2.3,5.5L73,119.1c1.5,1.5,3.4,2.3,5.5,2.3c2.2,0,4-0.8,5.5-2.3l24-24l24,24
	c1.5,1.5,3.4,2.3,5.5,2.3c2.2,0,4-0.8,5.5-2.3l11.1-11.1c1.5-1.5,2.3-3.4,2.3-5.5s-0.8-4-2.3-5.5L130.2,73z"/>
</svg>
