<svg xmlns="http://www.w3.org/2000/svg" width="32" height="32" viewBox="59 24 98.5 97.8" enable-background="new 59 24 98.5 97.8"><path d="M130.2 73l24-24c1.5-1.5 2.3-3.4 2.3-5.5s-.8-4-2.3-5.5l-11.2-11.1c-1.5-1.5-3.4-2.3-5.5-2.3-2.2 0-4 .8-5.5 2.3l-24 24-24-24c-1.5-1.5-3.4-2.3-5.5-2.3-2.2 0-4 .8-5.5 2.3l-11.1 11.1c-1.5 1.5-2.3 3.4-2.3 5.5s.8 4 2.3 5.5l24 24-24 24c-1.5 1.5-2.3 3.4-2.3 5.5s.8 4 2.3 5.5l11.1 11.1c1.5 1.5 3.4 2.3 5.5 2.3 2.2 0 4-.8 5.5-2.3l24-24 24 24c1.5 1.5 3.4 2.3 5.5 2.3 2.2 0 4-.8 5.5-2.3l11.1-11.1c1.5-1.5 2.3-3.4 2.3-5.5s-.8-4-2.3-5.5l-23.9-24z"/></svg>