<svg width="2048" height="2048" viewBox="0 0 2048 2048" xmlns="http://www.w3.org/2000/svg"><path d="M192 1504v-1088q0-66 47-113t113-47h1344q66 0 113 47t47 113v1088q0 66-47 113t-113 47h-1344q-66 0-113-47t-47-113zm128 0q0 14 9 23t23 9h320q14 0 23-9t9-23v-192q0-14-9-23t-23-9h-320q-14 0-23 9t-9 23v192zm0-384q0 14 9 23t23 9h320q14 0 23-9t9-23v-192q0-14-9-23t-23-9h-320q-14 0-23 9t-9 23v192zm0-384q0 14 9 23t23 9h320q14 0 23-9t9-23v-192q0-14-9-23t-23-9h-320q-14 0-23 9t-9 23v192zm512 768q0 14 9 23t23 9h320q14 0 23-9t9-23v-192q0-14-9-23t-23-9h-320q-14 0-23 9t-9 23v192zm0-384q0 14 9 23t23 9h320q14 0 23-9t9-23v-192q0-14-9-23t-23-9h-320q-14 0-23 9t-9 23v192zm0-384q0 14 9 23t23 9h320q14 0 23-9t9-23v-192q0-14-9-23t-23-9h-320q-14 0-23 9t-9 23v192zm512 768q0 14 9 23t23 9h320q14 0 23-9t9-23v-192q0-14-9-23t-23-9h-320q-14 0-23 9t-9 23v192zm0-384q0 14 9 23t23 9h320q14 0 23-9t9-23v-192q0-14-9-23t-23-9h-320q-14 0-23 9t-9 23v192zm0-384q0 14 9 23t23 9h320q14 0 23-9t9-23v-192q0-14-9-23t-23-9h-320q-14 0-23 9t-9 23v192z"/></svg>